<svg xmlns="http://www.w3.org/2000/svg" width="20" height="20" viewBox="0 0 20 20" fill="none" aria-hidden="true">
  <path fill="#58181d" d="M2 3.25A1.25 1.25 0 0 1 3.25 2h3.5A1.25 1.25 0 0 1 8 3.25v3.5A1.25 1.25 0 0 1 6.75 8h-3.5A1.25 1.25 0 0 1 2 6.75v-3.5Zm9 0A1.25 1.25 0 0 1 12.25 2h3.5A1.25 1.25 0 0 1 17 3.25v3.5A1.25 1.25 0 0 1 15.75 8h-3.5A1.25 1.25 0 0 1 11 6.75v-3.5Zm-9 9A1.25 1.25 0 0 1 3.25 11h3.5A1.25 1.25 0 0 1 8 12.25v3.5A1.25 1.25 0 0 1 6.75 17h-3.5A1.25 1.25 0 0 1 2 15.75v-3.5Zm9 0A1.25 1.25 0 0 1 12.25 11h3.5A1.25 1.25 0 0 1 17 12.25v3.5A1.25 1.25 0 0 1 15.75 17h-3.5A1.25 1.25 0 0 1 11 15.75v-3.5Z"/>
</svg>
